<svg width="99" height="19" viewBox="0 0 99 19" fill="none" xmlns="http://www.w3.org/2000/svg">
<path d="M0.195312 0.117188H5.57422V6.09375C6.29297 6.07812 6.94141 5.61328 7.51953 4.69922C8.09766 3.78516 8.38672 2.33203 8.38672 0.339844V0.117188H13.8828V0.363281C13.8828 4.37109 13.082 7.25781 11.4805 9.02344C13.3008 11.1562 14.2109 14.0781 14.2109 17.7891V18H8.38672V17.8125C8.38672 15.8438 8.14062 14.3086 7.64844 13.207C7.16406 12.0977 6.47266 11.5195 5.57422 11.4727V18H0.195312V0.117188ZM21.0898 18H15.7109V0.117188H21.0898V18ZM32.0586 18H23.5156V0.117188H30.0195C31.5352 0.117188 32.6445 0.253906 33.3477 0.527344C34.0586 0.800781 34.6484 1.33594 35.1172 2.13281C35.5938 2.92969 35.832 3.89844 35.832 5.03906C35.832 6.02344 35.707 6.78906 35.457 7.33594C35.2148 7.88281 34.8125 8.42188 34.25 8.95312C34.9219 9.51562 35.4102 10.0977 35.7148 10.6992C36.0195 11.3008 36.1719 12.1094 36.1719 13.125C36.1719 14.6016 35.7969 15.7852 35.0469 16.6758C34.2969 17.5586 33.3008 18 32.0586 18ZM29.0352 3.71484H28.8945V7.19531H29.0352C29.6133 7.19531 30.0273 7.06641 30.2773 6.80859C30.5273 6.55078 30.6523 6.12109 30.6523 5.51953C30.6523 4.84766 30.5312 4.37891 30.2891 4.11328C30.0547 3.84766 29.6367 3.71484 29.0352 3.71484ZM28.9883 10.2188H28.8945V14.0625H29.0586C29.6836 14.0625 30.125 13.9258 30.3828 13.6523C30.6406 13.3789 30.7695 12.9062 30.7695 12.2344C30.7695 11.4844 30.6406 10.9609 30.3828 10.6641C30.125 10.3672 29.6602 10.2188 28.9883 10.2188ZM43.1914 13.5117H47.9023V18H37.8125V0.117188H47.9023V4.60547H43.1914V6.82031H46.4844V11.3086H43.1914V13.5117ZM49.5547 18V0.117188H54.9336C56.8008 0.117188 58.0508 0.179687 58.6836 0.304688C59.3164 0.429688 59.8672 0.714844 60.3359 1.16016C60.8047 1.59766 61.1797 2.19922 61.4609 2.96484C61.75 3.72266 61.8945 4.52734 61.8945 5.37891C61.8945 7.17578 61.4375 8.52734 60.5234 9.43359C61.8438 11.6211 62.6289 14.4766 62.8789 18H57.2891V17.8359C57.2891 15.7344 57.0898 14.1328 56.6914 13.0312C56.293 11.9297 55.7305 11.3789 55.0039 11.3789H54.9336V18H49.5547ZM55.0273 3.79688H54.9336V7.24219H55.0742C55.5977 7.24219 55.9766 7.10156 56.2109 6.82031C56.4453 6.53906 56.5625 6.08984 56.5625 5.47266C56.5625 4.35547 56.0508 3.79688 55.0273 3.79688ZM68.9609 3.59766C70.4531 3.59766 71.6797 4.28516 72.6406 5.66016C73.6094 7.03516 74.0938 8.8125 74.0938 10.9922C74.0938 13.1953 73.6094 14.9453 72.6406 16.2422C71.6719 17.5391 70.3633 18.1875 68.7148 18.1875C67.207 18.1875 65.9766 17.5 65.0234 16.125C64.0781 14.7422 63.6055 12.9258 63.6055 10.6758C63.6055 8.60547 64.1055 6.91016 65.1055 5.58984C66.1055 4.26172 67.3906 3.59766 68.9609 3.59766ZM68.8438 12.3867C69.1484 12.3867 69.4023 12.2422 69.6055 11.9531C69.8164 11.6562 69.9219 11.2812 69.9219 10.8281C69.9219 10.3281 69.8281 9.92578 69.6406 9.62109C69.4531 9.31641 69.2031 9.16406 68.8906 9.16406C68.5625 9.16406 68.2969 9.3125 68.0938 9.60938C67.8906 9.90625 67.7891 10.2969 67.7891 10.7812C67.7891 11.2266 67.8906 11.6055 68.0938 11.918C68.2969 12.2305 68.5469 12.3867 68.8438 12.3867ZM75.6172 3.91406H80.5625V5.66016C81.3672 4.41797 82.3516 3.79688 83.5156 3.79688C84.1641 3.79688 84.7383 3.96094 85.2383 4.28906C85.7461 4.61719 86.1289 5.07422 86.3867 5.66016C86.6445 6.24609 86.8125 6.87891 86.8906 7.55859C86.9766 8.23047 87.0195 9.375 87.0195 10.9922V18H82.3555V11.4727C82.3555 9.93359 82.3047 8.97266 82.2031 8.58984C82.1016 8.20703 81.8398 8.01562 81.418 8.01562C81.1523 8.01562 80.8672 8.17578 80.5625 8.49609V18H75.6172V3.91406ZM98.6562 11.8594H93.6172C93.7891 12.5859 94.0859 13.1523 94.5078 13.5586C94.9375 13.957 95.4219 14.1562 95.9609 14.1562C97.0703 14.1562 97.9688 13.6445 98.6562 12.6211V15.0938C97.5234 17.1562 95.9609 18.1875 93.9688 18.1875C92.2734 18.1875 90.9297 17.5039 89.9375 16.1367C88.9453 14.7617 88.4492 12.8867 88.4492 10.5117C88.4492 9.19922 88.6953 7.97266 89.1875 6.83203C89.6797 5.68359 90.3008 4.85547 91.0508 4.34766C91.8008 3.83203 92.6562 3.57422 93.6172 3.57422C94.2031 3.57422 94.7852 3.72656 95.3633 4.03125C95.9414 4.32812 96.4727 4.78125 96.957 5.39062C97.4492 5.99219 97.832 6.74219 98.1055 7.64062C98.3789 8.53906 98.5352 9.27344 98.5742 9.84375C98.6211 10.4141 98.6484 11.0859 98.6562 11.8594ZM93.3242 9.38672H95.6328C95.6094 8.69922 95.4883 8.15625 95.2695 7.75781C95.0508 7.35156 94.7852 7.14844 94.4727 7.14844C94.1445 7.14844 93.8711 7.34375 93.6523 7.73438C93.4336 8.125 93.3242 8.625 93.3242 9.23438V9.38672Z" fill="black"/>
</svg>
