<svg width="80" height="80" viewBox="0 0 80 80" fill="none" xmlns="http://www.w3.org/2000/svg">
<mask id="mask0_177_302" style="mask-type:luminance" maskUnits="userSpaceOnUse" x="14" y="5" width="24" height="49">
<path d="M14.4473 5.33301H37.3327V53.333H14.4473V5.33301Z" fill="white"/>
</mask>
<g mask="url(#mask0_177_302)">
<path fill-rule="evenodd" clip-rule="evenodd" d="M30.9941 27.8125L36.6712 31.099V8.58333L31.6608 5.6875L26.4316 8.69792V14.7656L25.0202 15.5833V9.51563L20.4056 12.1823V18.599L25.7389 21.6667L30.9785 18.6406V12.9687L32.39 12.151V19.4583L26.4316 22.901V28.9323L25.0202 29.75V22.8906L19.8118 19.8802L14.4473 22.974V28.1719L20.4056 24.7344V26.3698L14.4473 29.8073V35.6719L19.8118 38.7656L24.2389 36.2083L20.041 33.776V32.151L32.39 39.2813V47.6927L30.9785 46.875V40.099L25.6504 37.026L20.4056 40.0521V46.2708L25.0202 48.9271V41.9688L26.4316 42.7865V49.7448L31.7858 52.8385L36.6712 50.0208V32.7344L30.9941 29.4479V27.8125Z" fill="#014A3F"/>
</g>
<path fill-rule="evenodd" clip-rule="evenodd" d="M38.1309 10.3331V49.8644L39.584 50.7133L41.8496 52.0154C41.4798 53.2967 42.0215 54.7185 43.2298 55.4112C44.6569 56.2342 46.4746 55.7498 47.3027 54.3175C48.1204 52.9008 47.6309 51.0727 46.209 50.2446C45.0007 49.5519 43.5059 49.7967 42.5788 50.755L39.584 49.0258V9.49458L42.5788 7.76541C43.5059 8.72895 45.0007 8.96853 46.209 8.27062C47.6309 7.4477 48.1204 5.62478 47.3027 4.1977C46.4746 2.77583 44.6569 2.29145 43.2298 3.10916C42.0215 3.80708 41.4798 5.22374 41.8496 6.50499L39.584 7.81228L38.1309 8.65604V10.3331ZM44.11 53.88C43.5371 53.5415 43.3392 52.8019 43.6777 52.229C44.0059 51.656 44.7454 51.4529 45.3184 51.7862C45.9017 52.1196 46.0944 52.854 45.7611 53.4373C45.4277 54.0102 44.6934 54.2081 44.11 53.88ZM43.6777 6.29666C43.3392 5.71333 43.5371 4.97895 44.11 4.64562C44.6934 4.31749 45.4277 4.51541 45.7611 5.08833C46.0944 5.66645 45.9017 6.40083 45.3184 6.73416C44.7454 7.0727 44.0059 6.86958 43.6777 6.29666Z" fill="#737373"/>
<path fill-rule="evenodd" clip-rule="evenodd" d="M44.7441 21.2809H41.1504V22.7288H45.3483L46.8066 21.2809L48.5879 19.4945H56.39L59.7077 22.8174C59.0254 23.958 59.1712 25.4684 60.1608 26.458C61.3223 27.6195 63.2181 27.6195 64.3796 26.458C65.541 25.2913 65.541 23.4059 64.3796 22.2445C63.39 21.2549 61.8848 21.1038 60.7389 21.7861L58.4421 19.4945L56.9941 18.0361H47.9837L46.5306 19.4945L44.7441 21.2809ZM61.416 23.4945C61.89 23.0257 62.6504 23.0257 63.1191 23.4945C63.5931 23.9684 63.5931 24.734 63.1191 25.1976C62.6504 25.6663 61.89 25.6663 61.416 25.1976C60.9473 24.734 60.9473 23.9684 61.416 23.4945Z" fill="#737373"/>
<path fill-rule="evenodd" clip-rule="evenodd" d="M41.1504 15.3594H43.0775L44.5306 13.9063L46.2441 12.1875H48.5671C48.8952 13.4844 50.0671 14.4427 51.4629 14.4427C53.1035 14.4427 54.4421 13.1094 54.4421 11.4583C54.4421 9.81771 53.1035 8.48438 51.4629 8.48438C50.0671 8.48438 48.8952 9.44271 48.5671 10.7292H45.64L44.1816 12.1875L42.4733 13.9063H41.1504V15.3594ZM50.2546 11.4583C50.2546 10.7969 50.7962 10.2604 51.4629 10.2604C52.1243 10.2604 52.666 10.7969 52.666 11.4583C52.666 12.1302 52.1243 12.6667 51.4629 12.6667C50.7962 12.6667 50.2546 12.1302 50.2546 11.4583Z" fill="#014A3F"/>
<path fill-rule="evenodd" clip-rule="evenodd" d="M43.291 35.7861H41.1504V37.2445H44.7441L46.5306 39.0309L47.9837 40.4788H56.9941L58.4421 39.0309L60.7389 36.7288C61.8848 37.4163 63.39 37.2705 64.3796 36.2809C65.541 35.1195 65.541 33.234 64.3796 32.0674C63.2181 30.9059 61.3223 30.9059 60.1608 32.0674C59.1712 33.057 59.0254 34.557 59.7077 35.6976L56.39 39.0309H48.5879L46.8066 37.2445L45.3483 35.7861H43.291ZM63.1191 35.0309C62.6504 35.4997 61.89 35.4997 61.416 35.0309C60.9473 34.557 60.9473 33.7913 61.416 33.3226C61.89 32.8486 62.6504 32.8486 63.1191 33.3226C63.5931 33.7913 63.5931 34.557 63.1191 35.0309Z" fill="#737373"/>
<path fill-rule="evenodd" clip-rule="evenodd" d="M41.1504 29.9896H51.1816C51.5046 31.2813 52.6764 32.2396 54.0671 32.2396C55.7181 32.2396 57.0514 30.9063 57.0514 29.2604C57.0514 27.6146 55.7181 26.2812 54.0671 26.2812C52.6764 26.2812 51.5046 27.2396 51.1816 28.5313H41.1504V29.9896ZM52.8691 29.2604C52.8691 28.5938 53.4056 28.0573 54.0671 28.0573C54.7389 28.0573 55.2754 28.5938 55.2754 29.2604C55.2754 29.9271 54.7389 30.4635 54.0671 30.4635C53.4056 30.4635 52.8691 29.9271 52.8691 29.2604Z" fill="#014A3F"/>
<path fill-rule="evenodd" clip-rule="evenodd" d="M44.5306 44.6195L43.0775 43.1611H41.1504V44.6195H42.4733L45.64 47.7861H48.5671C48.8952 49.083 50.0671 50.0413 51.4629 50.0413C53.1035 50.0413 54.4421 48.708 54.4421 47.057C54.4421 45.4163 53.1035 44.083 51.4629 44.083C50.0671 44.083 48.8952 45.0413 48.5671 46.3278H46.2441L44.5306 44.6195ZM51.4629 48.2653C50.7962 48.2653 50.2546 47.7288 50.2546 47.057C50.2546 46.3955 50.7962 45.859 51.4629 45.859C52.1243 45.859 52.666 46.3955 52.666 47.057C52.666 47.7288 52.1243 48.2653 51.4629 48.2653Z" fill="#014A3F"/>
<path d="M3.17188 67.3255H3.65104V63.2214H8.38021C9.63021 63.2214 10.6719 62.1797 10.6719 60.9297C10.6719 59.6589 9.63021 58.6172 8.38021 58.6172H3.17188V67.3255ZM3.65104 59.1172H8.38021C9.35938 59.1172 10.1719 59.9297 10.1719 60.9297C10.1719 61.9297 9.35938 62.7422 8.38021 62.7422H3.65104V59.1172Z" fill="black"/>
<path d="M20.2422 60.9297C20.2422 59.6589 19.2005 58.6172 17.9505 58.6172H12.7422V67.3255H13.2214V63.2214H16.3672L19.888 67.3464H20.5339L17.013 63.2214H17.9505C19.2005 63.2214 20.2422 62.1797 20.2422 60.9297ZM13.2214 59.1172H17.9505C18.9297 59.1172 19.7422 59.9297 19.7422 60.9297C19.7422 61.9297 18.9297 62.7422 17.9505 62.7422H13.2214V59.1172Z" fill="black"/>
<path d="M26.9518 67.3464C29.3477 67.3464 31.306 65.3672 31.306 62.9922C31.306 60.5755 29.3477 58.6172 26.9518 58.6172C24.556 58.6172 22.5977 60.5755 22.5977 62.9922C22.5977 65.3672 24.556 67.3464 26.9518 67.3464ZM26.9518 59.1172C29.0768 59.1172 30.806 60.8464 30.806 62.9714C30.806 65.1172 29.0768 66.8464 26.9518 66.8464C24.806 66.8464 23.0768 65.1172 23.0768 62.9714C23.0768 60.8464 24.806 59.1172 26.9518 59.1172Z" fill="black"/>
<path d="M45.2402 65.0339C45.2402 63.763 44.1986 62.7422 42.9486 62.7422H40.0319C39.0319 62.7422 38.2194 61.9297 38.2194 60.9297C38.2194 59.9297 39.0319 59.1172 40.0319 59.1172H42.9486C43.9277 59.1172 44.7402 59.9297 44.7402 60.9297H45.2402C45.2402 59.6589 44.1986 58.6172 42.9486 58.6172H40.0319C38.7611 58.6172 37.7402 59.6589 37.7402 60.9297C37.7402 62.1797 38.7611 63.2214 40.0319 63.2214H42.9486C43.9277 63.2214 44.7402 64.0339 44.7402 65.0339C44.7402 66.0339 43.9277 66.8464 42.9486 66.8464H40.0319C39.0319 66.8464 38.2194 66.0339 38.2194 65.0339H37.7402C37.7402 66.3047 38.7611 67.3464 40.0319 67.3464H42.9486C44.1986 67.3464 45.2402 66.3047 45.2402 65.0339Z" fill="black"/>
<path d="M51.0586 63.3672L54.4544 67.3464H55.1003L51.3711 62.9714L55.1003 58.6172H54.4544L47.7878 66.4089V58.6172H47.3086V67.3464H47.6628L51.0586 63.3672Z" fill="black"/>
<path d="M57.6432 67.3255V58.6172H57.1641V67.3255H57.6432Z" fill="black"/>
<path d="M67.2285 66.8464H60.2077V58.6172H59.7285V67.3464H67.2285V66.8464Z" fill="black"/>
<path d="M76.7969 66.8464H69.776V58.6172H69.2969V67.3464H76.7969V66.8464Z" fill="black"/>
<path d="M24.3887 74.1807V73.8682H22.5137V74.1807H24.3887Z" fill="black"/>
<path d="M26.5482 72.0762L24.9023 75.972H25.2148L25.569 75.1595H27.7357L28.0898 75.972H28.4232L26.7565 72.0762H26.5482ZM25.694 74.8678L26.6523 72.6178L27.6107 74.8678H25.694Z" fill="black"/>
<path d="M29.9141 75.4095C30.2891 75.7637 30.7682 75.972 31.2891 75.972C31.8099 75.972 32.3099 75.7637 32.6641 75.4095L32.4557 75.2012C31.8099 75.8262 30.7682 75.8262 30.1224 75.2012C29.8099 74.8887 29.6432 74.472 29.6432 74.0345C29.6432 73.5762 29.8099 73.1803 30.1224 72.8678C30.7682 72.222 31.8099 72.222 32.4557 72.8678L32.6641 72.6595C32.3099 72.2845 31.8099 72.0762 31.2891 72.0762C30.7682 72.0762 30.2891 72.2845 29.9141 72.6595C29.5599 73.0137 29.3516 73.5137 29.3516 74.0345C29.3516 74.5553 29.5599 75.0345 29.9141 75.4095Z" fill="black"/>
<path d="M35.2474 72.0762L33.6016 75.972H33.9141L34.2682 75.1595H36.4349L36.7891 75.972H37.1224L35.4557 72.0762H35.2474ZM34.3932 74.8678L35.3516 72.6178L36.3099 74.8678H34.3932Z" fill="black"/>
<path d="M39.4694 72.0762H38.0527V75.972H39.4694C40.5527 75.972 41.4069 75.097 41.4069 74.0345C41.4069 72.9512 40.5527 72.0762 39.4694 72.0762ZM39.4694 75.6803H38.3444V72.3887H39.4694C40.3652 72.3887 41.1152 73.1178 41.1152 74.0345C41.1152 74.9303 40.3652 75.6803 39.4694 75.6803Z" fill="black"/>
<path d="M45.7077 72.3887V72.0762H42.3535V75.972H45.7077V75.6803H42.6452V74.1803H44.6243V73.8678H42.6452V72.3887H45.7077Z" fill="black"/>
<path d="M48.5918 75.4928L46.8835 72.0762H46.6543V75.972H46.946V72.8678L48.5085 75.972H48.696L50.2376 72.8678V75.972H50.5501V72.0762H50.3001L48.5918 75.4928Z" fill="black"/>
<path d="M53.2643 74.4512L51.8268 72.0762H51.4727L53.1185 74.7845V75.972H53.431V74.7845L55.0768 72.0762H54.7227L53.2643 74.4512Z" fill="black"/>
<path d="M57.4648 74.1807V73.8682H55.5898V74.1807H57.4648Z" fill="black"/>
</svg>
